<svg width="297" height="222" viewBox="0 0 297 222" fill="none" xmlns="http://www.w3.org/2000/svg">
<circle r="2.5" transform="matrix(1 0 0 -1 84 3)" stroke="#1B1E32"/>
<circle r="2.5" transform="matrix(1 0 0 -1 84 3)" stroke="#1B1E32"/>
<circle r="2.5" transform="matrix(1 0 0 -1 285 219)" stroke="#1B1E32"/>
<circle r="2.5" transform="matrix(1 0 0 -1 42 3)" stroke="#1B1E32"/>
<circle r="2.5" transform="matrix(1 0 0 -1 42 3)" stroke="#1B1E32"/>
<circle r="2.5" transform="matrix(1 0 0 -1 243 219)" stroke="#1B1E32"/>
<circle r="2.5" transform="matrix(1 0 0 -1 58.7998 3)" stroke="#1B1E32"/>
<circle r="2.5" transform="matrix(1 0 0 -1 58.7998 3)" stroke="#1B1E32"/>
<circle r="2.5" transform="matrix(1 0 0 -1 259.8 219)" stroke="#1B1E32"/>
<circle r="2.5" transform="matrix(1 0 0 -1 75.6001 3)" stroke="#1B1E32"/>
<circle r="2.5" transform="matrix(1 0 0 -1 75.6001 3)" stroke="#1B1E32"/>
<circle r="2.5" transform="matrix(1 0 0 -1 276.6 219)" stroke="#1B1E32"/>
<circle r="2.5" transform="matrix(1 0 0 -1 50.3999 3)" stroke="#1B1E32"/>
<circle r="2.5" transform="matrix(1 0 0 -1 50.3999 3)" stroke="#1B1E32"/>
<circle r="2.5" transform="matrix(1 0 0 -1 251.4 219)" stroke="#1B1E32"/>
<circle r="2.5" transform="matrix(1 0 0 -1 67.2002 3)" stroke="#1B1E32"/>
<circle r="2.5" transform="matrix(1 0 0 -1 67.2002 3)" stroke="#1B1E32"/>
<circle r="2.5" transform="matrix(1 0 0 -1 268.2 219)" stroke="#1B1E32"/>
<line y1="-0.5" x2="11.7551" y2="-0.5" transform="matrix(0.099494 0.995038 -0.999557 0.0297669 0 148.699)" stroke="#001E3C"/>
<line y1="-0.5" x2="11.7551" y2="-0.5" transform="matrix(0.099494 0.995038 -0.999557 0.0297669 7 37)" stroke="#001E3C"/>
<line y1="-0.5" x2="11.7551" y2="-0.5" transform="matrix(0.583683 0.811981 -0.850758 0.525557 248.814 147.948)" stroke="#001E3C"/>
<line y1="-0.5" x2="13.0441" y2="-0.5" transform="matrix(0.667847 0.744298 -0.829367 0.558705 39.2456 115.293)" stroke="#001E3C"/>
<line y1="-0.5" x2="11.0703" y2="-0.5" transform="matrix(0.923346 0.38397 -0.429063 0.903274 243.968 89.77)" stroke="#001E3C"/>
<line y1="-0.5" x2="11.0778" y2="-0.5" transform="matrix(0.89112 -0.453768 0.475109 0.879927 1.21387 160.482)" stroke="#001E3C"/>
<line y1="-0.5" x2="11.0778" y2="-0.5" transform="matrix(0.544848 -0.838535 0.85142 0.524485 9.21777 49.2832)" stroke="#001E3C"/>
<line y1="-0.5" x2="11.0778" y2="-0.5" transform="matrix(0.544848 -0.838535 0.85142 0.524485 255.757 157.546)" stroke="#001E3C"/>
<line y1="-0.5" x2="11.8428" y2="-0.5" transform="matrix(0.49885 -0.866688 0.896078 0.443896 48.2681 125.155)" stroke="#001E3C"/>
<line x1="253.988" y1="93.8984" x2="253.988" y2="83.3888" stroke="#001E3C"/>
<line y1="-0.5" x2="11.6988" y2="-0.5" transform="matrix(0.0328964 0.999459 -0.999179 -0.0405033 10.8999 155.182)" stroke="#001E3C"/>
<line y1="-0.5" x2="11.6988" y2="-0.5" transform="matrix(0.528219 0.849108 -0.885566 0.464513 14.9561 39.8501)" stroke="#001E3C"/>
<line y1="-0.5" x2="12.9228" y2="-0.5" transform="matrix(0.617406 0.786645 -0.866507 0.499165 53.8105 114.918)" stroke="#001E3C"/>
<line y1="-0.5" x2="11.0322" y2="-0.5" transform="matrix(0.896089 0.443875 -0.492454 0.870338 254.067 83.4033)" stroke="#001E3C"/>
<line y1="-0.5" x2="11.0778" y2="-0.5" transform="matrix(0.89112 -0.453768 0.475109 0.879927 11.5923 167.222)" stroke="#001E3C"/>
<line y1="-0.5" x2="11.0778" y2="-0.5" transform="matrix(0.544848 -0.838535 0.85142 0.524485 21.5762 49.9312)" stroke="#001E3C"/>
<line y1="-0.5" x2="11.0778" y2="-0.5" transform="matrix(0.544848 -0.838535 0.85142 0.524485 268.115 158.194)" stroke="#001E3C"/>
<line y1="-0.5" x2="11.8428" y2="-0.5" transform="matrix(0.49885 -0.866688 0.896078 0.443896 62.3066 125.182)" stroke="#001E3C"/>
<line x1="263.698" y1="88.2686" x2="263.698" y2="77.7589" stroke="#001E3C"/>
<line y1="-0.5" x2="11.0778" y2="-0.5" transform="matrix(0.89112 -0.453768 0.475109 0.879927 29.5352 180)" stroke="#001E3C"/>
<line y1="-0.5" x2="11.0778" y2="-0.5" transform="matrix(0.544848 -0.838535 0.85142 0.524485 43.5039 52.0259)" stroke="#001E3C"/>
<line y1="-0.5" x2="11.0778" y2="-0.5" transform="matrix(0.544848 -0.838535 0.85142 0.524485 290.043 160.288)" stroke="#001E3C"/>
<line y1="-0.5" x2="11.8428" y2="-0.5" transform="matrix(0.49885 -0.866688 0.896078 0.443896 86.6328 125.438)" stroke="black"/>
<line x1="281.5" y1="78.5098" x2="281.5" y2="68.0001" stroke="#001E3C"/>
<line y1="-0.5" x2="11.6988" y2="-0.5" transform="matrix(0.0328964 0.999459 -0.999179 -0.0405033 21.0386 162.211)" stroke="#001E3C"/>
<line y1="-0.5" x2="11.6988" y2="-0.5" transform="matrix(0.528219 0.849108 -0.885566 0.464513 27.2515 40.8687)" stroke="#001E3C"/>
<line y1="-0.5" x2="11.6988" y2="-0.5" transform="matrix(0.528219 0.849108 -0.885566 0.464513 273.791 149.131)" stroke="#001E3C"/>
<line y1="-0.5" x2="12.9228" y2="-0.5" transform="matrix(0.617406 0.786645 -0.866507 0.499165 67.9712 114.918)" stroke="#001E3C"/>
<line y1="-0.5" x2="11.0322" y2="-0.5" transform="matrix(0.896089 0.443875 -0.492454 0.870338 263.761 77.8213)" stroke="#001E3C"/>
<line y1="-0.5" x2="11.4352" y2="-0.5" transform="matrix(0.89112 -0.453768 0.475109 0.879927 21.6963 173.905)" stroke="#001E3C"/>
<line y1="-0.5" x2="11.4352" y2="-0.5" transform="matrix(0.544848 -0.838535 0.85142 0.524485 33.668 50.667)" stroke="#001E3C"/>
<line y1="-0.5" x2="11.4352" y2="-0.5" transform="matrix(0.544848 -0.838535 0.85142 0.524485 280.207 158.929)" stroke="#001E3C"/>
<line y1="-0.5" x2="12.2249" y2="-0.5" transform="matrix(0.49885 -0.866688 0.896078 0.443896 75.6138 124.66)" stroke="black"/>
<line x1="273.408" y1="82.6387" x2="273.408" y2="71.7537" stroke="#001E3C"/>
<line y1="-0.5" x2="11.4842" y2="-0.5" transform="matrix(-0.210187 0.977661 -0.959294 -0.28241 31.5444 168.593)" stroke="#001E3C"/>
<line y1="-0.5" x2="11.4842" y2="-0.5" transform="matrix(0.306803 0.951773 -0.971978 0.235072 39.54 41.1421)" stroke="#001E3C"/>
<line y1="-0.5" x2="11.4842" y2="-0.5" transform="matrix(0.306803 0.951773 -0.971978 0.235072 286.08 149.404)" stroke="#001E3C"/>
<line y1="-0.5" x2="12.4737" y2="-0.5" transform="matrix(0.406616 0.913599 -0.960406 0.278603 80.8169 113.792)" stroke="black"/>
<line y1="-0.5" x2="10.8696" y2="-0.5" transform="matrix(0.764917 0.644129 -0.693241 0.720705 273.504 71.7534)" stroke="#001E3C"/>
</svg>
