<svg width="78" height="85" viewBox="0 0 78 85" fill="none" xmlns="http://www.w3.org/2000/svg">
<path d="M71.1494 12.6108C71.4345 12.0482 71.836 11.6583 72.2013 11.1685" stroke="#0EB48C" stroke-width="3" stroke-linecap="round"/>
<path d="M33.8321 43.8335C29.2803 44.8142 26.5914 47.9724 23.78 51.7416C22.206 53.8518 21.0445 55.7509 18.498 56.8889C16.4177 57.8186 15.5271 59.4158 13.0996 59.4158C9.71999 59.4158 14.4791 60.781 15.4032 61.1939C18.4302 62.5467 22.2853 60.4751 25.2459 59.8135C29.0049 58.9736 29.9663 54.8281 34.0415 53.9175C36.1445 53.4476 37.0323 52.383 38.4393 54.1515C38.652 54.4188 42.6509 52.6775 43.4654 52.6775C45.4314 52.6775 46.715 52.7203 48.4914 53.6134C49.8239 54.2833 51.5399 55.6289 52.9125 56.0232C55.6387 56.8065 57.7757 59.7488 60.2189 61.1939C61.3992 61.8921 62.8081 63.6272 64.1978 63.6272C65.0415 63.6272 68.892 62.7849 67.3391 62.7849" stroke="#0EB48C" stroke-width="3" stroke-linecap="round"/>
<path d="M34.6699 43.4126L36.7641 43.8337" stroke="#0EB48C" stroke-width="3" stroke-linecap="round"/>
<path d="M36.7627 43.8335C38.1151 44.4114 41.6679 46.7945 43.371 45.4245C45.1393 44.0021 45.9198 43.8335 48.2807 43.8335C51.8986 43.8335 53.8737 46.5451 56.8669 48.1385C58.3001 48.9014 59.8141 49.9321 60.9622 51.0865C62.0109 52.141 62.6114 53.845 63.7777 54.7832C64.879 55.6691 66.2224 57.5816 66.919 58.8075C67.4526 59.7464 68.4836 59.803 69.0132 60.4686C69.2095 60.7153 71.4663 61.1004 69.8509 61.1004" stroke="#0EB48C" stroke-width="3" stroke-linecap="round"/>
<path d="M67.3389 63.6274C68.4283 63.1619 69.2999 62.4309 70.2707 61.9429" stroke="#0EB48C" stroke-width="3" stroke-linecap="round"/>
<path d="M37.1826 72.4711C39.6381 71.9894 41.2356 71.3794 43.6513 72.0734C45.0364 72.4713 46.9433 72.8923 48.4912 72.8923" stroke="#0EB48C" stroke-width="3" stroke-linecap="round"/>
<path d="M37.1826 72.4717C37.7005 73.7276 39.2214 77.902 40.3239 78.7888C41.4132 79.6651 42.8495 81.341 43.4652 82.5791" stroke="#0EB48C" stroke-width="3" stroke-linecap="round"/>
<path d="M43.4648 83.0003C43.5138 81.0321 44.4001 79.1926 45.559 77.736C46.3636 76.7247 47.6532 75.5204 47.6532 74.1562" stroke="#0EB48C" stroke-width="3" stroke-linecap="round"/>
<path d="M2.83691 14.3533C5.65948 7.50849 14.428 6.35159 21.0564 6.35159C23.8486 6.35159 26.6409 6.35159 29.4331 6.35159C30.4289 6.35159 31.8048 6.10042 32.7606 6.37499C33.2072 6.50331 34.9939 7.61502 34.6686 7.61502" stroke="#0EB48C" stroke-width="3" stroke-linecap="round"/>
<path d="M2 13.0902C5.16423 10.6798 6.19558 7.70488 9.7485 5.72017C12.325 4.28091 15.7482 2.14046 18.7535 2.14046C22.2568 2.14046 24.7923 1.61921 28.1541 2.585C29.2666 2.90461 30.9188 3.23578 31.8306 4.15259C32.7387 5.06573 34.6694 5.30043 34.6694 6.77303" stroke="#0EB48C" stroke-width="3" stroke-linecap="round"/>
<path d="M48.0723 9.72119C54.1057 9.72119 60.3937 10.1423 66.2917 10.1423C68.3781 10.1423 76.7656 16.9844 75.2967 17.7229" stroke="#0EB48C" stroke-width="3" stroke-linecap="round"/>
<path d="M47.6533 10.1422C49.5807 7.66151 54.05 6.3519 57.0772 6.3519C59.8897 6.3519 63.2785 5.19255 66.0822 6.44548C67.1149 6.907 69.153 7.36876 69.8517 8.24704C70.3483 8.87116 72.0055 10.527 72.5742 10.9845C73.5158 11.7419 77.0114 17.0712 75.7155 17.7228" stroke="#0EB48C" stroke-width="3" stroke-linecap="round"/>
<path d="M16.1641 61.3345C16.3266 60.5902 16.8092 60.3835 17.0898 59.7879C17.2897 59.3635 17.8304 58.7185 17.8304 58.2412" stroke="#0EB48C" stroke-width="3" stroke-linecap="round"/>
<path d="M18.8564 61.4637C19.1175 60.0856 19.9022 58.9365 20.3946 57.6257C20.5327 57.2583 20.7411 56.9002 20.9074 56.5659" stroke="#0EB48C" stroke-width="3" stroke-linecap="round"/>
<path d="M22.0615 60.4321C22.0615 58.7738 22.2635 56.9987 22.8021 55.4341C22.9223 55.0849 23.0972 54.7057 23.2437 54.3744C23.3961 54.0294 23.2628 53.6581 23.4715 53.3433" stroke="#0EB48C" stroke-width="3" stroke-linecap="round"/>
<path d="M23.9844 59.7876C24.2348 57.7105 24.1417 55.5999 24.6253 53.5509C24.9335 52.2448 25.2332 50.9434 25.5226 49.6341C25.5595 49.4671 25.7789 48.3645 25.7789 49.0255C25.7789 49.2617 25.7789 49.498 25.7789 49.7343" stroke="#0EB48C" stroke-width="3" stroke-linecap="round"/>
<path d="M25.6504 59.1434C26.021 56.027 27.388 53.2567 28.4419 50.336C29.0515 48.6466 29.5459 46.913 30.1938 45.2378C30.4017 44.7002 30.265 45.9629 30.265 45.8679" stroke="#0EB48C" stroke-width="3" stroke-linecap="round"/>
<path d="M28.3418 57.0808C28.8039 54.8951 29.6135 52.9467 30.5921 50.9515C30.8372 50.4518 31.2327 49.9177 31.4182 49.4048C31.5521 49.0345 31.7841 48.669 31.9594 48.3164C32.0922 48.0494 32.2883 47.3329 32.5077 47.1564C32.7707 46.9449 32.7677 46.2577 33.0561 45.9678C33.3047 45.7178 33.5973 45.0555 33.5973 44.7075" stroke="#0EB48C" stroke-width="3" stroke-linecap="round"/>
<path d="M32.3154 54.5036C32.3154 52.7907 32.7726 51.5665 33.462 50.0068C33.7814 49.2841 33.9817 48.1503 34.4945 47.5436C34.9053 47.0577 35.1504 46.0579 35.7052 45.7392C36.013 45.5623 36.1551 45.3584 36.4173 45.0947" stroke="#0EB48C" stroke-width="3" stroke-linecap="round"/>
<path d="M35.9053 53.0855C35.9338 51.6497 36.1702 50.6648 37.1586 49.6341C37.6454 49.1265 38.1073 48.5199 38.5188 47.9442C38.7949 47.5579 39.0604 47.243 39.3662 46.8916C39.614 46.607 40.1087 46.3079 40.2635 45.9966" stroke="#0EB48C" stroke-width="3" stroke-linecap="round"/>
<path d="M39.1094 53.4723C39.1288 51.792 39.4112 50.3333 40.5835 49.1545C40.8643 48.8721 42.2547 47.0972 42.1858 47.0278" stroke="#0EB48C" stroke-width="3" stroke-linecap="round"/>
<path d="M42.3135 52.9568C42.4162 51.0977 44.0945 49.6703 45.1691 48.281C45.6265 47.6897 46.1274 46.5521 46.7999 46.1544C47.1067 45.9729 47.2428 45.3432 47.4408 45.0445C47.5664 44.8551 48.2064 44.3213 47.8254 44.3213" stroke="#0EB48C" stroke-width="3" stroke-linecap="round"/>
<path d="M46.0312 52.4413C47.6995 49.9029 49.5338 47.7758 51.5787 45.5673C51.8255 45.3007 52.0134 45.0372 52.3122 44.8369" stroke="#0EB48C" stroke-width="3" stroke-linecap="round"/>
<path d="M49.1074 54.3745C49.6898 53.2033 50.3624 52.3916 51.4076 51.6034C51.7485 51.3463 52.0621 51.0025 52.3618 50.7011C52.618 50.4436 52.6653 50.0614 53.0099 49.8634C53.3928 49.6434 53.5081 48.99 53.8217 48.6747C54.2668 48.2272 54.6798 47.4896 54.8757 46.8989" stroke="#0EB48C" stroke-width="3" stroke-linecap="round"/>
<path d="M53.0811 55.921C54.2686 54.7099 55.6623 53.558 56.7343 52.2405C57.0689 51.8293 57.3525 51.3508 57.7597 51.0232C58.174 50.69 58.3095 49.8124 58.7211 49.6055" stroke="#0EB48C" stroke-width="3" stroke-linecap="round"/>
<path d="M51.2871 55.148C52.625 53.9911 53.4908 52.5516 54.335 51.0236C54.755 50.2634 55.5694 48.5747 56.5426 48.5747" stroke="#0EB48C" stroke-width="3" stroke-linecap="round"/>
<path d="M47.3135 53.6011C47.8305 52.7485 48.5626 52.2163 49.1721 51.4673C49.6204 50.9164 49.8242 50.2908 50.1905 49.7058C50.6229 49.0153 51.1711 48.4334 51.7358 47.8656C52.1351 47.464 52.844 47.2481 53.0817 46.77" stroke="#0EB48C" stroke-width="3" stroke-linecap="round"/>
<path d="M55.248 57.0348C57.4214 56.9355 57.4442 54.8089 58.5723 53.5C58.8836 53.1389 59.1168 52.7949 59.4751 52.4428C59.6534 52.2676 60.2279 52.0182 60.3141 51.8447" stroke="#0EB48C" stroke-width="3" stroke-linecap="round"/>
<path d="M57.9248 59.2454C58.2713 57.7472 59.5878 56.8428 60.4101 55.6679C60.8757 55.0025 61.4752 54.4123 61.8439 53.6709" stroke="#0EB48C" stroke-width="3" stroke-linecap="round"/>
<path d="M59.3574 60.3984C59.801 60.0671 60.2615 59.748 60.7169 59.4373C61.273 59.0578 61.5574 58.5878 62.0126 58.1131C62.378 57.7321 62.4379 57.1481 62.703 56.7248C62.8667 56.4634 62.9208 56.1836 63.1065 55.9345C63.4725 55.4438 63.9183 54.9902 64.3492 54.5569C64.6386 54.2659 63.7126 55.0762 63.3721 55.3045" stroke="#0EB48C" stroke-width="3" stroke-linecap="round"/>
<path d="M61.748 61.9361C62.4434 61.2157 63.078 60.6812 63.9041 60.1526C64.3323 59.8786 64.6655 59.486 64.998 59.1061C65.2119 58.8616 65.5626 58.695 65.6671 58.3799" stroke="#0EB48C" stroke-width="3" stroke-linecap="round"/>
<path d="M64.5195 63.3779C64.8796 62.7912 65.2951 62.2405 65.6453 61.6479C65.7865 61.4091 66.0071 60.7268 66.2879 60.6013C66.4964 60.5082 66.5978 60.6401 66.718 60.3984" stroke="#0EB48C" stroke-width="3" stroke-linecap="round"/>
<path d="M38.75 75.2949C39.4391 74.4713 40.046 73.6852 40.8421 72.9689C40.9698 72.854 41.3884 72.6024 41.349 72.6817" stroke="#0EB48C" stroke-width="3" stroke-linecap="round"/>
<path d="M39.9121 77.0187C40.3499 75.9441 41.2338 75.0781 42.038 74.2695C42.44 73.8653 42.8333 73.5407 43.2852 73.2378" stroke="#0EB48C" stroke-width="3" stroke-linecap="round"/>
<path d="M41.0732 78.5757C41.2913 77.918 41.7657 77.4193 42.1792 76.8768C42.6451 76.2655 43.0561 75.61 43.537 75.011C43.7086 74.7973 43.8601 74.5717 44.0286 74.3562C44.0898 74.2778 44.1824 74.2522 44.2252 74.1554C44.3448 73.8847 44.8627 73.5291 45.1099 73.4048" stroke="#0EB48C" stroke-width="3" stroke-linecap="round"/>
<path d="M41.958 80.1323C42.8137 79.1918 43.6172 78.213 44.4464 77.2534C44.6089 77.0652 44.6769 76.9174 44.901 76.8394C45.0111 76.8011 45.116 76.7284 45.1652 76.6294" stroke="#0EB48C" stroke-width="3" stroke-linecap="round"/>
<path d="M9.18164 7.70661C9.40886 7.30481 9.81918 7.14996 10.1486 6.85189C10.2509 6.75932 10.3793 6.69016 10.4248 6.55273" stroke="#0EB48C" stroke-width="3" stroke-linecap="round"/>
<path d="M12.5283 6.74484C12.9343 5.9847 13.65 5.4616 14.1328 4.74693C14.3054 4.49138 14.5551 4.2261 14.7756 4.00439" stroke="#0EB48C" stroke-width="3" stroke-linecap="round"/>
<path d="M15.3018 6.36061C16.0788 6.1568 16.8512 5.62903 17.5012 5.16935C18.0417 4.78716 18.58 4.4031 19.1163 4.01547C19.5293 3.71698 19.8185 3.4537 20.1789 3.09131" stroke="#0EB48C" stroke-width="3" stroke-linecap="round"/>
<path d="M19.4619 5.97584C20.3208 4.96826 23.0728 2.1047 22.1395 3.04308" stroke="#0EB48C" stroke-width="3" stroke-linecap="round"/>
<path d="M21.9473 5.9281C22.7167 4.92525 23.5034 3.93617 24.2902 2.94727" stroke="#0EB48C" stroke-width="3" stroke-linecap="round"/>
<path d="M24.4346 6.02381C24.5416 5.50542 24.891 5.10052 25.1226 4.63489C25.2401 4.39853 25.3695 4.184 25.5077 3.95645C25.71 3.62361 26.0843 3.37926 26.2515 3.04297" stroke="#0EB48C" stroke-width="3" stroke-linecap="round"/>
<path d="M26.7764 5.88002C27.0464 4.76537 27.7414 3.87164 28.3543 2.94727" stroke="#0EB48C" stroke-width="3" stroke-linecap="round"/>
<path d="M28.5459 6.02393C28.7109 5.65517 28.9439 5.3224 29.1303 4.96622C29.1984 4.83617 29.3494 4.77492 29.4278 4.65104C29.5443 4.46702 29.7339 4.15258 29.9325 4.05273" stroke="#0EB48C" stroke-width="3" stroke-linecap="round"/>
<path d="M51.0664 9.67798C51.9406 8.69173 52.7252 7.61932 53.6378 6.66776C53.6634 6.64103 54.1266 6.14587 54.1266 6.33655C54.1266 6.48389 54.165 6.91821 54.0309 6.98561" stroke="#0EB48C" stroke-width="3" stroke-linecap="round"/>
<path d="M54.4141 9.72606C54.8899 9.03878 55.401 8.25292 55.992 7.65871C56.1788 7.47079 56.3558 7.12008 56.6135 7.03369" stroke="#0EB48C" stroke-width="3" stroke-linecap="round"/>
<path d="M57.4268 9.77419C58.0449 9.30803 58.5682 8.73763 59.1401 8.21699C59.4658 7.9205 59.7538 7.58683 60.1256 7.34892C60.3914 7.17885 60.3755 6.65705 60.6782 6.50488" stroke="#0EB48C" stroke-width="3" stroke-linecap="round"/>
<path d="M60.7256 9.96634C61.1639 9.45854 61.7554 9.03286 62.0644 8.42785C62.1762 8.20901 62.3584 8.04229 62.4947 7.84023C62.6808 7.56454 62.8833 7.30223 63.0685 7.0229C63.1343 6.92365 63.2036 6.79738 63.3076 6.74512" stroke="#0EB48C" stroke-width="3" stroke-linecap="round"/>
<path d="M63.9287 10.1589C64.5352 9.56428 65.1816 8.93068 65.7457 8.33194C65.853 8.21807 65.9923 8.1152 66.0804 7.98471C66.1971 7.81174 66.3562 7.48629 66.5585 7.41846" stroke="#0EB48C" stroke-width="3" stroke-linecap="round"/>
<path d="M67.3242 10.351C67.3242 10.0401 67.3606 9.73627 67.372 9.42684C67.3768 9.29727 67.5613 8.94015 67.6802 8.906C67.8106 8.86852 67.8955 8.59066 67.991 8.50268C68.0964 8.40554 68.1773 8.2913 68.2805 8.1875" stroke="#0EB48C" stroke-width="3" stroke-linecap="round"/>
<path d="M69.1885 11.3125C69.4034 11.0964 69.5893 10.9466 69.7144 10.6635C69.8055 10.4574 69.9813 10.2671 70.0491 10.0625" stroke="#0EB48C" stroke-width="3" stroke-linecap="round"/>
</svg>
